<svg width="42" height="42" viewBox="0 0 42 42" fill="none" xmlns="http://www.w3.org/2000/svg">
<g id="Type=xlsx">
<path id="background" d="M4.59375 0.65625H24.9375L37.4062 13.125V41.3438H4.59375V0.65625Z" fill="white"/>
<path id="shadow" fill-rule="evenodd" clip-rule="evenodd" d="M4.59375 41.3438H37.4062V13.125L24.9375 0.65625H4.59375V41.3438ZM24.9375 0H3.9375V42H38.0625V13.125L24.9375 0Z" fill="url(#paint0_linear_30_106)"/>
<path id="format" fill-rule="evenodd" clip-rule="evenodd" d="M9.84375 25.5938C9.11888 25.5938 8.53125 26.1814 8.53125 26.9062V37.4062C8.53125 38.1311 9.11888 38.7188 9.84375 38.7188H32.1562C32.8811 38.7188 33.4688 38.1311 33.4688 37.4062V26.9062C33.4688 26.1814 32.8811 25.5938 32.1562 25.5938H9.84375ZM25.4886 33.6161C25.4886 34.2083 25.2748 34.6749 24.8471 35.0158C24.4224 35.3568 23.8302 35.5272 23.0706 35.5272C22.3708 35.5272 21.7517 35.3956 21.2134 35.1324V33.8405C21.656 34.0378 22.0298 34.1769 22.3349 34.2577C22.6429 34.3384 22.9241 34.3788 23.1783 34.3788C23.4833 34.3788 23.7166 34.3205 23.8781 34.2038C24.0426 34.0872 24.1248 33.9137 24.1248 33.6834C24.1248 33.5548 24.0889 33.4412 24.0172 33.3425C23.9454 33.2408 23.8392 33.1436 23.6987 33.0509C23.5611 32.9582 23.2785 32.8101 22.8508 32.6068C22.45 32.4184 22.1495 32.2374 21.9491 32.064C21.7487 31.8905 21.5887 31.6886 21.4691 31.4583C21.3494 31.2281 21.2896 30.9589 21.2896 30.6508C21.2896 30.0706 21.4855 29.6146 21.8773 29.2826C22.2721 28.9506 22.8164 28.7846 23.5102 28.7846C23.8512 28.7846 24.1757 28.825 24.4837 28.9058C24.7948 28.9865 25.1192 29.1002 25.4572 29.2467L25.0086 30.3279C24.6587 30.1843 24.3686 30.0841 24.1383 30.0273C23.911 29.9705 23.6867 29.942 23.4654 29.942C23.2022 29.942 23.0003 30.0034 22.8598 30.126C22.7192 30.2486 22.6489 30.4086 22.6489 30.606C22.6489 30.7286 22.6773 30.8363 22.7341 30.929C22.791 31.0187 22.8807 31.1069 23.0033 31.1937C23.1289 31.2774 23.4235 31.4299 23.8871 31.6512C24.5002 31.9443 24.9204 32.2389 25.1477 32.535C25.375 32.8281 25.4886 33.1885 25.4886 33.6161ZM15.0399 35.4375H16.628L14.4119 32.1313L16.471 28.8788H14.9726L13.5864 31.2385L12.1733 28.8788H10.6391L12.6758 32.055L10.5 35.4375H11.9894L13.5146 32.9567L15.0399 35.4375ZM16.9735 28.8788V35.4375H21.0244V34.2891H18.3642V28.8788H16.9735ZM29.9119 35.4375H31.5L29.2839 32.1313L31.343 28.8788H29.8446L28.4584 31.2385L27.0453 28.8788H25.5111L27.5478 32.055L25.372 35.4375H26.8614L28.3867 32.9567L29.9119 35.4375Z" fill="#6AAA1E"/>
<path id="logo" fill-rule="evenodd" clip-rule="evenodd" d="M8.53125 4.59375H24.9375V12.4688H33.4688V22.3125H8.53125V4.59375ZM32.1562 13.7812H25.5938V16.4062H32.1562V13.7812ZM32.1562 17.7188H25.5938V21H32.1562V17.7188ZM24.2812 21V17.7188H18.375V21H24.2812ZM17.0625 21V17.7188H9.84375V21H17.0625ZM9.84375 16.4062H17.0625V13.7812H9.84375V16.4062ZM9.84375 12.4688H17.0625V9.84375H9.84375V12.4688ZM9.84375 8.53125H17.0625V5.90625H9.84375V8.53125ZM18.375 5.90625V8.53125H24.2812V5.90625H18.375ZM24.2812 9.84375H18.375V12.4688H24.2812V9.84375ZM24.2812 13.7812H18.375V16.4062H24.2812V13.7812Z" fill="#BFBFBF"/>
<path id="ear shadow" opacity="0.3" d="M24.2812 13.125V0.65625H24.9375V12.4688H37.4062L38.0625 13.125H24.2812Z" fill="black"/>
</g>
<defs>
<linearGradient id="paint0_linear_30_106" x1="21" y1="41.2344" x2="21" y2="5.30685e-07" gradientUnits="userSpaceOnUse">
<stop stop-color="#A8A8A8"/>
<stop offset="1" stop-color="#DADADA"/>
</linearGradient>
</defs>
</svg>
