<svg width="24" height="24" viewBox="0 0 24 24" fill="none" xmlns="http://www.w3.org/2000/svg">
<path fill-rule="evenodd" clip-rule="evenodd" d="M10 12V5H20V19H18.5H15V21H18.5H21C21.5523 21 22 20.5523 22 20V4C22 3.44772 21.5523 3 21 3H9C8.44772 3 8 3.44772 8 4V12H10ZM6.5 16H9V14L13 17L9 20V18H6V17.9804C3.33333 17.768 2 15.8432 2 13.5C2 11.1837 3.5 8.99999 6 9.02734V11C4.30386 11.2427 4 12.5 4 13.5C4 14.5 4.56702 16 6.5 16ZM19 7H11V9H19V7ZM11 11H19V13H11V11ZM19 15H14V17H19V15Z" fill="#3A3A54"/>
</svg>
