<svg width="42" height="42" viewBox="0 0 42 42" fill="none" xmlns="http://www.w3.org/2000/svg">
<path d="M4.59375 0.65625H24.9375L37.4062 13.125V41.3438H4.59375V0.65625Z" fill="white"/>
<path fill-rule="evenodd" clip-rule="evenodd" d="M4.59375 41.3438H37.4062V13.125L24.9375 0.65625H4.59375V41.3438ZM24.9375 0H3.9375V42H38.0625V13.125L24.9375 0Z" fill="#BFBFBF"/>
<path d="M8.53125 5.90625H24.9375V12.4688H33.4688V22.9688H8.53125V5.90625Z" fill="#F2F2F2"/>
<rect x="12.4688" y="9.84375" width="1.96875" height="0.65625" fill="#888888"/>
<rect x="15.0938" y="9.84375" width="1.96875" height="0.65625" fill="#888888"/>
<rect x="12.4688" y="18.375" width="1.96875" height="0.65625" fill="#888888"/>
<rect x="15.0938" y="18.375" width="1.96875" height="0.65625" fill="#888888"/>
<rect width="7.875" height="0.65625" transform="matrix(-4.37114e-08 1 1 4.37114e-08 14.4375 10.5)" fill="#888888"/>
<path fill-rule="evenodd" clip-rule="evenodd" d="M24.9375 7.21875H9.79327V21.6562H24.9375V7.21875ZM8.53125 5.90625V22.9688H33.4688V12.4688H32.1562V21.6562H24.9375V5.90625H8.53125Z" fill="#BFBFBF"/>
<path opacity="0.3" d="M24.2812 13.125V0.65625H24.9375V12.4688H37.4062L38.0625 13.125H24.2812Z" fill="black"/>
<path fill-rule="evenodd" clip-rule="evenodd" d="M9.84375 25.5938C9.11893 25.5938 8.53125 26.1808 8.53125 26.9062V37.4062C8.53125 38.1317 9.11893 38.7188 9.84375 38.7188H32.1562C32.8811 38.7188 33.4688 38.1317 33.4688 37.4062V26.9062C33.4688 26.1808 32.8811 25.5938 32.1562 25.5938H9.84375ZM14.2578 32.4828C14.2578 33.2215 14.0676 33.7892 13.6871 34.186C13.3065 34.5828 12.7611 34.7812 12.0508 34.7812C11.3405 34.7812 10.7951 34.5828 10.4145 34.186C10.034 33.7892 9.84375 33.2195 9.84375 32.4767C9.84375 31.734 10.034 31.1673 10.4145 30.7766C10.7972 30.3839 11.3447 30.1875 12.0571 30.1875C12.7696 30.1875 13.3139 30.3849 13.6902 30.7797C14.0686 31.1744 14.2578 31.7422 14.2578 32.4828ZM10.8743 32.4828C10.8743 32.9814 10.9726 33.3568 11.1692 33.6092C11.3659 33.8615 11.6597 33.9876 12.0508 33.9876C12.8351 33.9876 13.2273 33.486 13.2273 32.4828C13.2273 31.4776 12.8372 30.975 12.0571 30.975C11.666 30.975 11.3711 31.1022 11.1724 31.3565C10.9737 31.6089 10.8743 31.9843 10.8743 32.4828ZM15.9261 34.7202H14.9589V30.2577H17.6162V31.033H15.9261V32.1837H17.4989V32.956H15.9261V34.7202ZM21.9006 34.186C22.2811 33.7892 22.4714 33.2215 22.4714 32.4828C22.4714 31.7422 22.2822 31.1744 21.9038 30.7797C21.5275 30.3849 20.9831 30.1875 20.2707 30.1875C19.5582 30.1875 19.0107 30.3839 18.6281 30.7766C18.2475 31.1673 18.0573 31.734 18.0573 32.4767C18.0573 33.2195 18.2475 33.7892 18.6281 34.186C19.0086 34.5828 19.554 34.7812 20.2643 34.7812C20.9746 34.7812 21.5201 34.5828 21.9006 34.186ZM19.3828 33.6092C19.1862 33.3568 19.0879 32.9814 19.0879 32.4828C19.0879 31.9843 19.1872 31.6089 19.3859 31.3565C19.5847 31.1022 19.8796 30.975 20.2707 30.975C21.0507 30.975 21.4408 31.4776 21.4408 32.4828C21.4408 33.486 21.0486 33.9876 20.2643 33.9876C19.8732 33.9876 19.5794 33.8615 19.3828 33.6092ZM24.1554 32.2387H24.4725C24.7833 32.2387 25.0127 32.1888 25.1607 32.0891C25.3087 31.9894 25.3826 31.8327 25.3826 31.619C25.3826 31.4074 25.3065 31.2568 25.1543 31.1673C25.0042 31.0778 24.7706 31.033 24.4535 31.033H24.1554V32.2387ZM24.1554 33.0078V34.7202H23.1724V30.2577H24.5233C25.1533 30.2577 25.6194 30.3686 25.9217 30.5904C26.224 30.8102 26.3752 31.1449 26.3752 31.5946C26.3752 31.8571 26.3001 32.0911 26.15 32.2967C25.9999 32.5001 25.7875 32.6599 25.5127 32.7759C26.2103 33.7791 26.6648 34.4272 26.8762 34.7202H25.7854L24.6787 33.0078H24.1554ZM28.0466 31.2192L29.1628 34.7202H30.0634L31.2588 31.2253H31.2874C31.262 31.7869 31.2472 32.1328 31.243 32.2631C31.2409 32.3933 31.2398 32.5083 31.2398 32.608V34.7202H32.1562V30.2577H30.8181L29.6543 33.6702H29.6353L28.5381 30.2577H27.1999V34.7202H28.0783V32.6446C28.0783 32.4065 28.0582 31.9314 28.018 31.2192H28.0466Z" fill="#188079"/>
</svg>
