<svg width="42" height="42" viewBox="0 0 42 42" fill="none" xmlns="http://www.w3.org/2000/svg">
<path d="M4.59375 0.65625H24.9375L37.4062 13.125V41.3438H4.59375V0.65625Z" fill="white"/>
<path fill-rule="evenodd" clip-rule="evenodd" d="M4.59375 41.3438H37.4062V13.125L24.9375 0.65625H4.59375V41.3438ZM24.9375 0H3.9375V42H38.0625V13.125L24.9375 0Z" fill="url(#paint0_linear_72_403)"/>
<path d="M22 5.90625H24.9375V9.1875H22V5.90625Z" fill="#BFBFBF"/>
<path d="M22 10.5H24.9375V12.4688H33.4688V13.7812H22V10.5Z" fill="#BFBFBF"/>
<path d="M22 15.0938H33.4688V18.375H22V15.0938Z" fill="#BFBFBF"/>
<path d="M8.53003 20H33.53V23H8.53003V20Z" fill="#BFBFBF"/>
<path opacity="0.3" d="M24.2812 13.125V0.65625H24.9375V12.4688H37.4062L38.0625 13.125H24.2812Z" fill="black"/>
<rect x="8.53003" y="6" width="12" height="12.47" fill="#BFBFBF"/>
<path d="M13.8587 31.9638H14.3164C14.7441 31.9638 15.0641 31.88 15.2765 31.7125C15.4889 31.5419 15.595 31.2951 15.595 30.972C15.595 30.6459 15.5053 30.405 15.3258 30.2495C15.1494 30.0939 14.8712 30.0161 14.4914 30.0161H13.8587V31.9638Z" fill="#9E1919"/>
<path d="M23.0286 32.1298C23.0286 30.7207 22.4065 30.0161 21.1622 30.0161H20.4219V34.2885H21.0186C22.3586 34.2885 23.0286 33.5689 23.0286 32.1298Z" fill="#9E1919"/>
<path fill-rule="evenodd" clip-rule="evenodd" d="M9.84266 25.5898C9.11771 25.5898 8.53003 26.1777 8.53003 26.9028V37.4068C8.53003 38.132 9.11771 38.7198 9.84266 38.7198H32.1574C32.8823 38.7198 33.47 38.132 33.47 37.4068V26.9028C33.47 26.1777 32.8823 25.5898 32.1574 25.5898H9.84266ZM16.9993 30.9226C16.9993 31.6287 16.778 32.1687 16.3353 32.5427C15.8956 32.9167 15.269 33.1037 14.4555 33.1037H13.8587V35.4373H12.4679V28.8762H14.5631C15.3587 28.8762 15.9629 29.0482 16.3757 29.3923C16.7914 29.7334 16.9993 30.2435 16.9993 30.9226ZM24.4732 32.0939C24.4732 33.174 24.1652 34.0012 23.549 34.5757C22.9359 35.1501 22.049 35.4373 20.8885 35.4373H19.0311V28.8762H21.0904C22.1612 28.8762 22.9927 29.1589 23.5849 29.7244C24.1771 30.2898 24.4732 31.0797 24.4732 32.0939ZM26.4287 35.4373H27.7971V32.8434H30.0224V31.708H27.7971V30.0161H30.1884V28.8762H26.4287V35.4373Z" fill="#9E1919"/>
<defs>
<linearGradient id="paint0_linear_72_403" x1="21" y1="41.2344" x2="21" y2="0" gradientUnits="userSpaceOnUse">
<stop stop-color="#A8A8A8"/>
<stop offset="1" stop-color="#DADADA"/>
</linearGradient>
</defs>
</svg>
