<svg width="42" height="42" viewBox="0 0 42 42" fill="none" xmlns="http://www.w3.org/2000/svg">
<g id="Type=pptx">
<path id="background" d="M4.59375 0.65625H24.9375L37.4062 13.125V41.3438H4.59375V0.65625Z" fill="white"/>
<path id="shadow" fill-rule="evenodd" clip-rule="evenodd" d="M4.59375 41.3438H37.4062V13.125L24.9375 0.65625H4.59375V41.3438ZM24.9375 0H3.9375V42H38.0625V13.125L24.9375 0Z" fill="url(#paint0_linear_30_112)"/>
<g id="format">
<path d="M11.7548 31.9653H11.2972V30.0183H11.9298C12.3096 30.0183 12.5877 30.0961 12.7642 30.2516C12.9436 30.4071 13.0334 30.6479 13.0334 30.9738C13.0334 31.2968 12.9272 31.5436 12.7148 31.7141C12.5025 31.8815 12.1825 31.9653 11.7548 31.9653Z" fill="#F36700"/>
<path d="M17.6611 31.9653H17.2035V30.0183H17.836C18.2159 30.0183 18.494 30.0961 18.6704 30.2516C18.8499 30.4071 18.9396 30.6479 18.9396 30.9738C18.9396 31.2968 18.8334 31.5436 18.6211 31.7141C18.4088 31.8815 18.0887 31.9653 17.6611 31.9653Z" fill="#F36700"/>
<path fill-rule="evenodd" clip-rule="evenodd" d="M9.84375 25.5938C9.11888 25.5938 8.53125 26.1814 8.53125 26.9062V37.4062C8.53125 38.1311 9.11888 38.7188 9.84375 38.7188H32.1562C32.8811 38.7188 33.4688 38.1311 33.4688 37.4062V26.9062C33.4688 26.1814 32.8811 25.5938 32.1562 25.5938H9.84375ZM13.7736 32.544C14.2162 32.1701 14.4375 31.6303 14.4375 30.9245C14.4375 30.2456 14.2296 29.7357 13.8139 29.3947C13.4012 29.0508 12.7971 28.8788 12.0016 28.8788H9.90656V35.4375H11.2972V33.1047H11.8939C12.7074 33.1047 13.3339 32.9178 13.7736 32.544ZM19.6798 32.544C20.1224 32.1701 20.3438 31.6303 20.3438 30.9245C20.3438 30.2456 20.1359 29.7357 19.7202 29.3947C19.3075 29.0508 18.7033 28.8788 17.9078 28.8788H15.8128V35.4375H17.2035V33.1047H17.8001C18.6136 33.1047 19.2402 32.9178 19.6798 32.544ZM23.9531 35.4375H22.5624V30.0363H20.7815V28.8788H25.7341V30.0363H23.9531V35.4375ZM30.5682 35.4375H32.1562L29.9401 32.1313L31.9992 28.8788H30.5009L29.1147 31.2385L27.7016 28.8788H26.1673L28.204 32.055L26.0283 35.4375H27.5176L29.0429 32.9567L30.5682 35.4375Z" fill="#F36700"/>
</g>
<g id="logo">
<path fill-rule="evenodd" clip-rule="evenodd" d="M8.53125 5.90625H24.9375V7.21875H9.84375V21.6562H32.1562V12.4688H33.4688V22.9688H8.53125V5.90625Z" fill="#BFBFBF"/>
<path d="M11.1562 20.3438V17.7188H13.7812V20.3438H11.1562Z" fill="#BFBFBF"/>
<path d="M13.7812 15.75H11.1562V13.125H13.7812V15.75Z" fill="#BFBFBF"/>
<path d="M11.1562 8.53125V11.1562H13.7812V8.53125H11.1562Z" fill="#BFBFBF"/>
<path d="M15.0938 8.53125V11.1562H22.3125V9.84375H19.6875V8.53125H15.0938Z" fill="#BFBFBF"/>
<path d="M26.9062 13.125H15.0938V15.75H21.6562V14.4375H26.9062V13.125Z" fill="#BFBFBF"/>
<path d="M15.0938 20.3438V17.7188H30.8438V19.0312H25.5938V20.3438H15.0938Z" fill="#BFBFBF"/>
</g>
<path id="ear shadow" opacity="0.3" d="M24.2812 13.125V0.65625H24.9375V12.4688H37.4062L38.0625 13.125H24.2812Z" fill="black"/>
</g>
<defs>
<linearGradient id="paint0_linear_30_112" x1="21" y1="41.2344" x2="21" y2="5.30685e-07" gradientUnits="userSpaceOnUse">
<stop stop-color="#A8A8A8"/>
<stop offset="1" stop-color="#DADADA"/>
</linearGradient>
</defs>
</svg>
