<svg width="42" height="42" viewBox="0 0 42 42" fill="none" xmlns="http://www.w3.org/2000/svg">
<g id="Type=docx">
<path id="background" d="M4.59375 0.65625H24.9375L37.4062 13.125V41.3438H4.59375V0.65625Z" fill="white"/>
<path id="shadow" fill-rule="evenodd" clip-rule="evenodd" d="M4.59375 41.3438H37.4062V13.125L24.9375 0.65625H4.59375V41.3438ZM24.9375 0H3.9375V42H38.0625V13.125L24.9375 0Z" fill="url(#paint0_linear_30_100)"/>
<g id="format">
<path d="M11.037 34.4086V30.3637H11.5911C12.0937 30.3637 12.4311 30.3832 12.6033 30.4221C12.8338 30.472 13.0241 30.5679 13.174 30.7095C13.324 30.8511 13.4406 31.0483 13.5239 31.301C13.6073 31.5537 13.6489 31.9161 13.6489 32.3882C13.6489 32.8603 13.6073 33.2339 13.5239 33.5088C13.4406 33.781 13.3323 33.9767 13.199 34.0962C13.0685 34.2156 12.9033 34.3003 12.7033 34.3503C12.5506 34.3891 12.302 34.4086 11.9577 34.4086H11.037Z" fill="#1E7AAA"/>
<path d="M17.0464 33.9545C16.727 33.5963 16.5674 33.0714 16.5674 32.3799C16.5674 31.6773 16.7229 31.1524 17.0339 30.8053C17.345 30.4554 17.7546 30.2804 18.2628 30.2804C18.771 30.2804 19.1778 30.4526 19.4833 30.797C19.7916 31.1413 19.9457 31.6634 19.9457 32.3633C19.9457 33.0714 19.7874 33.6032 19.4708 33.9587C19.157 34.3114 18.7543 34.4877 18.2628 34.4877C17.7712 34.4877 17.3658 34.31 17.0464 33.9545Z" fill="#1E7AAA"/>
<path fill-rule="evenodd" clip-rule="evenodd" d="M9.84375 25.5938C9.11888 25.5938 8.53125 26.1814 8.53125 26.9062V37.4062C8.53125 38.1311 9.11888 38.7188 9.84375 38.7188H32.1562C32.8811 38.7188 33.4688 38.1311 33.4688 37.4062V26.9062C33.4688 26.1814 32.8811 25.5938 32.1562 25.5938H9.84375ZM12.0576 29.3307H9.80402V35.4375H12.1243C12.5797 35.4375 12.9435 35.3945 13.2157 35.3084C13.5795 35.1917 13.8683 35.0293 14.0821 34.821C14.3654 34.5461 14.5834 34.1864 14.7361 33.7421C14.8611 33.3783 14.9236 32.9451 14.9236 32.4424C14.9236 31.8703 14.8569 31.3899 14.7236 31.0011C14.5903 30.6095 14.396 30.279 14.1405 30.0097C13.885 29.7403 13.5781 29.5528 13.2198 29.4473C12.9532 29.3695 12.5658 29.3307 12.0576 29.3307ZM15.5759 30.8553C15.3899 31.2774 15.2968 31.7995 15.2968 32.4216C15.2968 33.3935 15.5648 34.1573 16.1008 34.7127C16.6368 35.2653 17.3588 35.5416 18.267 35.5416C19.1639 35.5416 19.8804 35.2639 20.4164 34.7085C20.9524 34.1503 21.2204 33.3783 21.2204 32.3924C21.2204 31.3982 20.9496 30.622 20.4081 30.0638C19.8693 29.5056 19.1501 29.2265 18.2503 29.2265C17.7532 29.2265 17.3144 29.307 16.9339 29.4681C16.6479 29.5875 16.3841 29.7708 16.1425 30.018C15.9036 30.2651 15.7148 30.5442 15.5759 30.8553ZM26.8632 33.5713L25.6676 33.1922C25.5649 33.6393 25.3955 33.967 25.1594 34.1753C24.9234 34.3836 24.6415 34.4877 24.3138 34.4877C23.8695 34.4877 23.5085 34.3239 23.2307 33.9962C22.953 33.6685 22.8142 33.1186 22.8142 32.3466C22.8142 31.619 22.9544 31.0927 23.2349 30.7678C23.5182 30.4429 23.8861 30.2804 24.3388 30.2804C24.6665 30.2804 24.9442 30.3721 25.1719 30.5554C25.4024 30.7386 25.5538 30.9886 25.626 31.3052L26.8465 31.0136C26.7077 30.5248 26.4994 30.1499 26.2217 29.8889C25.7551 29.4473 25.1483 29.2265 24.4013 29.2265C23.5459 29.2265 22.8558 29.5084 22.331 30.0721C21.8061 30.6331 21.5436 31.4218 21.5436 32.4382C21.5436 33.3991 21.8047 34.1573 22.3268 34.7127C22.8489 35.2653 23.5154 35.5416 24.3263 35.5416C24.9817 35.5416 25.5218 35.3806 25.9467 35.0584C26.3744 34.7335 26.6799 34.2378 26.8632 33.5713ZM28.9652 32.2508L26.8782 35.4375H28.357L29.715 33.3255L31.0688 35.4375H32.556L30.469 32.2966L32.3685 29.3307H30.9397L29.74 31.2927L28.5153 29.3307H27.074L28.9652 32.2508Z" fill="#1E7AAA"/>
</g>
<g id="logo">
<path d="M8.53125 5.90625H24.9375V9.1875H8.53125V5.90625Z" fill="#BFBFBF"/>
<path d="M8.53125 10.5H24.9375V12.4688H33.4688V13.7812H8.53125V10.5Z" fill="#BFBFBF"/>
<path d="M8.53125 15.0938H33.4688V18.375H8.53125V15.0938Z" fill="#BFBFBF"/>
<path d="M8.53125 19.6875H26.25V22.9688H8.53125V19.6875Z" fill="#BFBFBF"/>
</g>
<path id="ear shadow" opacity="0.3" d="M24.2812 13.125V0.65625H24.9375V12.4688H37.4062L38.0625 13.125H24.2812Z" fill="black"/>
</g>
<defs>
<linearGradient id="paint0_linear_30_100" x1="21" y1="41.2344" x2="21" y2="5.30685e-07" gradientUnits="userSpaceOnUse">
<stop stop-color="#A8A8A8"/>
<stop offset="1" stop-color="#DADADA"/>
</linearGradient>
</defs>
</svg>
